<svg width="123" height="156" viewBox="0 0 123 156" fill="none" xmlns="http://www.w3.org/2000/svg">
<path d="M8 156C8 135.013 25.0132 118 46 118H82C102.987 118 120 135.013 120 156H8Z" fill="black"/>
<path d="M45.5464 109.592H82.5464V113.092C82.5464 123.309 74.2637 131.592 64.0464 131.592C53.8292 131.592 45.5464 123.309 45.5464 113.092V109.592Z" fill="#EEC9A1"/>
<path d="M64.0464 15.3451C38.9175 15.3451 18.5464 35.7161 18.5464 60.8451V76.3451C18.5464 91.4147 29.6575 103.889 44.1342 106.023C47.1529 114.375 55.1525 120.345 64.5464 120.345C74.0062 120.345 82.0522 114.291 85.0215 105.847C98.9756 103.273 109.546 91.0437 109.546 76.3451V60.8451C109.546 35.7161 89.1754 15.3451 64.0464 15.3451Z" fill="#EEC9A1"/>
<path d="M47.7865 67.5674C47.7865 64.4991 45.5569 62.0118 42.8065 62.0118C40.0561 62.0118 37.8265 64.4991 37.8265 67.5674" stroke="#7F3C3C" stroke-width="2" stroke-linecap="round"/>
<path d="M93.1597 67.5674C93.1597 64.4991 90.9301 62.0118 88.1797 62.0118C85.4294 62.0118 83.1997 64.4991 83.1997 67.5674" stroke="#7F3C3C" stroke-width="2" stroke-linecap="round"/>
<circle cx="114.046" cy="68.8452" r="8.5" fill="#EEC9A1"/>
<circle cx="15.0464" cy="68.8452" r="8.5" fill="#EEC9A1"/>
<circle cx="15.0464" cy="68.8452" r="8.5" fill="#EEC9A1"/>
<circle cx="15.0464" cy="68.8452" r="8.5" fill="#EEC9A1"/>
<path d="M59.2302 12.3016L84.9873 5.85906C97.1511 2.81658 109.082 11.5882 109.807 24.1058L112 62H101.375C74.9954 62 54.9203 38.327 59.2302 12.3016Z" fill="#947365"/>
<path d="M17.7925 62.2274L9.94812 41.5905C5.18729 29.0657 13.8481 15.4937 27.2129 14.5355L83.5 10.5L83.3001 11.7357C78.639 40.5538 53.9128 61.8348 24.7219 62.1521L17.7925 62.2274Z" fill="#947365"/>
<path d="M48 78.5C48 80.9853 42.6274 83 36 83C29.3726 83 24 80.9853 24 78.5C24 76.0147 29.3726 74 36 74C42.6274 74 48 76.0147 48 78.5Z" fill="#EFC2C2"/>
<path d="M48 78.5C48 80.9853 42.6274 83 36 83C29.3726 83 24 80.9853 24 78.5C24 76.0147 29.3726 74 36 74C42.6274 74 48 76.0147 48 78.5Z" fill="#EFC2C2"/>
<path d="M48 78.5C48 80.9853 42.6274 83 36 83C29.3726 83 24 80.9853 24 78.5C24 76.0147 29.3726 74 36 74C42.6274 74 48 76.0147 48 78.5Z" fill="#F2C8C8"/>
<path d="M104 78.5C104 80.9853 98.6274 83 92 83C85.3726 83 80 80.9853 80 78.5C80 76.0147 85.3726 74 92 74C98.6274 74 104 76.0147 104 78.5Z" fill="#EFC2C2"/>
<path d="M104 78.5C104 80.9853 98.6274 83 92 83C85.3726 83 80 80.9853 80 78.5C80 76.0147 85.3726 74 92 74C98.6274 74 104 76.0147 104 78.5Z" fill="#EFC2C2"/>
<path d="M104 78.5C104 80.9853 98.6274 83 92 83C85.3726 83 80 80.9853 80 78.5C80 76.0147 85.3726 74 92 74C98.6274 74 104 76.0147 104 78.5Z" fill="#F2C8C8"/>
<path d="M74 79C74 83.4183 69.7467 87 64.5 87C59.2533 87 55 83.4183 55 79" stroke="#7F3C3C" stroke-width="2" stroke-linecap="round"/>
</svg>
