<svg width="167" height="167" viewBox="0 0 167 167" fill="none" xmlns="http://www.w3.org/2000/svg">
<circle cx="83.5" cy="83.5" r="83.5" fill="#EEDFD0"/>
<path d="M28 167C28 146.013 45.0132 129 66 129H102C122.987 129 140 146.013 140 167V167H28V167Z" fill="black"/>
<path d="M65.5464 120.592H102.546V124.092C102.546 134.309 94.2637 142.592 84.0464 142.592C73.8292 142.592 65.5464 134.309 65.5464 124.092V120.592Z" fill="#EEC9A1"/>
<path d="M84.0464 26.3451C58.9175 26.3451 38.5464 46.7161 38.5464 71.8451V87.3451C38.5464 102.415 49.6575 114.889 64.1342 117.023C67.1529 125.375 75.1525 131.345 84.5464 131.345C94.0062 131.345 102.052 125.291 105.022 116.847C118.976 114.273 129.546 102.044 129.546 87.3451V71.8451C129.546 46.7161 109.175 26.3451 84.0464 26.3451Z" fill="#EEC9A1"/>
<path d="M67.7865 78.5674C67.7865 75.4991 65.5569 73.0118 62.8065 73.0118C60.0561 73.0118 57.8265 75.4991 57.8265 78.5674" stroke="#7F3C3C" stroke-width="2" stroke-linecap="round"/>
<path d="M113.16 78.5674C113.16 75.4991 110.93 73.0118 108.18 73.0118C105.429 73.0118 103.2 75.4991 103.2 78.5674" stroke="#7F3C3C" stroke-width="2" stroke-linecap="round"/>
<circle cx="134.046" cy="79.8452" r="8.5" fill="#EEC9A1"/>
<circle cx="35.0464" cy="79.8452" r="8.5" fill="#EEC9A1"/>
<circle cx="35.0464" cy="79.8452" r="8.5" fill="#EEC9A1"/>
<circle cx="35.0464" cy="79.8452" r="8.5" fill="#EEC9A1"/>
<path d="M79.2302 23.3016L104.987 16.8591C117.151 13.8166 129.082 22.5882 129.807 35.1058L132 73H121.375C94.9954 73 74.9203 49.327 79.2302 23.3016Z" fill="#947365"/>
<path d="M37.7925 73.2274L29.9481 52.5905C25.1873 40.0657 33.8481 26.4937 47.2129 25.5355L103.5 21.5L103.3 22.7357C98.639 51.5538 73.9128 72.8348 44.7219 73.1521L37.7925 73.2274Z" fill="#947365"/>
<path d="M68 89.5C68 91.9853 62.6274 94 56 94C49.3726 94 44 91.9853 44 89.5C44 87.0147 49.3726 85 56 85C62.6274 85 68 87.0147 68 89.5Z" fill="#EFC2C2"/>
<path d="M68 89.5C68 91.9853 62.6274 94 56 94C49.3726 94 44 91.9853 44 89.5C44 87.0147 49.3726 85 56 85C62.6274 85 68 87.0147 68 89.5Z" fill="#EFC2C2"/>
<path d="M68 89.5C68 91.9853 62.6274 94 56 94C49.3726 94 44 91.9853 44 89.5C44 87.0147 49.3726 85 56 85C62.6274 85 68 87.0147 68 89.5Z" fill="#F2C8C8"/>
<path d="M124 89.5C124 91.9853 118.627 94 112 94C105.373 94 100 91.9853 100 89.5C100 87.0147 105.373 85 112 85C118.627 85 124 87.0147 124 89.5Z" fill="#EFC2C2"/>
<path d="M124 89.5C124 91.9853 118.627 94 112 94C105.373 94 100 91.9853 100 89.5C100 87.0147 105.373 85 112 85C118.627 85 124 87.0147 124 89.5Z" fill="#EFC2C2"/>
<path d="M124 89.5C124 91.9853 118.627 94 112 94C105.373 94 100 91.9853 100 89.5C100 87.0147 105.373 85 112 85C118.627 85 124 87.0147 124 89.5Z" fill="#F2C8C8"/>
<path d="M94 90C94 94.4183 89.7467 98 84.5 98C79.2533 98 75 94.4183 75 90" stroke="#7F3C3C" stroke-width="2" stroke-linecap="round"/>
</svg>
